<svg width="24" height="24" viewBox="0 0 24 24" fill="none" xmlns="http://www.w3.org/2000/svg">
<g clip-path="url(#clip0_15_25)">
<path d="M17.2969 1.70625L13.1484 3.21562L13.125 2.35312C13.1016 1.51875 13.0969 1.49062 12.9891 1.40156C12.8813 1.31719 12.7125 1.3125 6.74063 1.3125H0.604688L0.492188 1.42969L0.375 1.54219V7.5V13.4578L0.492188 13.5703C0.6 13.6828 0.632813 13.6875 1.17188 13.6875C1.48125 13.6875 1.73438 13.6969 1.73438 13.7062C1.73438 13.7156 1.69219 13.8234 1.63594 13.9453C1.42969 14.4094 1.48125 15.1359 1.75313 15.5625C1.83281 15.6891 2.01563 16.5281 2.57344 19.2891C2.97656 21.3 3.32813 22.9219 3.375 23.0156C3.4875 23.2359 3.67969 23.4141 3.9375 23.5266C4.14375 23.6203 4.22813 23.625 7.875 23.625H11.6016L11.8359 23.5125C12.0844 23.3953 12.2719 23.2172 12.3891 22.9922C12.4266 22.9172 12.7641 21.3375 13.1297 19.4906L13.8047 16.125H18.6H23.3953L23.5078 16.0078L23.625 15.8953V11.6344C23.625 7.50469 23.6203 7.36406 23.5359 7.26094L23.4469 7.14844L18.4453 7.125L13.4484 7.10156L17.0484 5.79375C22.4156 3.84375 22.7484 3.71719 22.8141 3.62812C22.8469 3.58125 22.875 3.48281 22.875 3.40781C22.875 3.22969 21.8578 0.421874 21.7547 0.318749C21.7125 0.276562 21.6281 0.229687 21.5625 0.215624C21.4828 0.196874 20.1516 0.660937 17.2969 1.70625ZM21.6609 2.13281C21.8625 2.7 22.0219 3.16406 22.0172 3.17344C21.9797 3.20625 20.1469 3.84844 20.1281 3.83437C20.1188 3.82031 20.2922 3.22031 20.5172 2.49844C20.8875 1.30781 20.9344 1.18125 21.0422 1.13437C21.1078 1.11094 21.1922 1.09219 21.2297 1.09219C21.2672 1.09687 21.4359 1.49531 21.6609 2.13281ZM19.6266 2.87812C19.4063 3.59531 19.2234 4.18125 19.2141 4.19062C19.1859 4.20937 17.6484 4.76719 17.6391 4.7625C17.6344 4.75781 17.8172 4.15781 18.0422 3.42187L18.4547 2.09062L19.2234 1.80469C19.6453 1.64531 19.9969 1.53281 20.0063 1.55156C20.0156 1.57031 19.8422 2.16562 19.6266 2.87812ZM12.375 2.77969V3.50156L11.2172 3.91875C10.0547 4.33594 9.84375 4.44844 9.84375 4.63594C9.84375 4.69219 10.0781 5.37187 10.3594 6.15L10.875 7.57031V9.42187V11.2734H10.4625C10.125 11.2781 10.0078 11.2969 9.79688 11.3953L9.53906 11.5172L9.40313 11.3062C9.23438 11.0484 8.79844 10.7203 8.47031 10.6125C8.12813 10.4906 7.55625 10.5047 7.21875 10.6359C6.88594 10.7625 6.53906 11.0297 6.35156 11.2969L6.20625 11.5125L5.95313 11.3953C5.73281 11.2922 5.625 11.2734 5.25 11.2734C4.84688 11.2734 4.77656 11.2875 4.49063 11.4234C4.06875 11.6203 3.7875 11.8922 3.58594 12.2953C3.49688 12.4734 3.42188 12.6469 3.42188 12.6797C3.42188 12.7125 3.31875 12.75 3.15938 12.7687C3.01875 12.7828 2.82656 12.8297 2.73281 12.8672C2.61094 12.9187 2.37656 12.9375 1.84688 12.9375H1.125V7.5V2.0625H6.75H12.375V2.77969ZM17.5313 2.56406C17.5078 2.63906 17.325 3.23437 17.1281 3.89062C16.9313 4.54687 16.7438 5.1 16.7156 5.11875C16.6266 5.175 15.225 5.67656 15.2063 5.65781C15.1875 5.63906 15.9656 3.04687 16.0031 3.01406C16.0266 2.99062 17.4891 2.44687 17.5406 2.44219C17.5594 2.4375 17.5547 2.49375 17.5313 2.56406ZM15.0938 3.3375C15.0891 3.41719 14.2969 5.97187 14.2688 5.99531C14.2172 6.0375 12.7406 6.57187 12.7266 6.55312C12.7219 6.54375 12.9 5.94375 13.1203 5.21719L13.5188 3.9L14.25 3.61875C14.9016 3.36562 15.0938 3.30469 15.0938 3.3375ZM12.6094 4.275C12.6047 4.30781 12.4313 4.90312 12.2203 5.60156C11.8359 6.86719 11.8359 6.86719 11.6719 6.94687C11.5828 6.98906 11.4938 7.00781 11.4797 6.99375C11.4422 6.95156 10.7344 4.99687 10.7344 4.94062C10.7344 4.90312 12.4406 4.24219 12.5766 4.22344C12.5953 4.21875 12.6094 4.24687 12.6094 4.275ZM22.875 11.625V15.375H18.4875C14.3344 15.375 14.1047 15.3703 14.1281 15.2906C14.3531 14.5312 14.2219 13.8703 13.7344 13.3406C13.4813 13.0641 12.9797 12.8109 12.6094 12.7687C12.45 12.75 12.3281 12.7125 12.3281 12.6844C12.3281 12.5531 12.0281 12.0234 11.8359 11.8219L11.625 11.5922V9.73125V7.875H17.25H22.875V11.625ZM8.37656 11.4328C8.62969 11.5594 8.84531 11.8266 8.92969 12.1125C9.02344 12.4172 9.11719 12.5156 9.31875 12.5156C9.44531 12.5156 9.52969 12.4734 9.68906 12.3234C9.95156 12.0797 10.1719 11.9906 10.5 11.9906C11.1188 11.9859 11.5359 12.3891 11.6203 13.0641C11.6719 13.4906 11.7609 13.5656 12.1922 13.5234C12.6281 13.4812 12.8578 13.5562 13.1484 13.8516C13.5234 14.2266 13.5984 14.6437 13.3734 15.0984L13.2422 15.3516L7.88906 15.3656L2.53594 15.375L2.44688 15.2484C2.13281 14.7937 2.19375 14.2594 2.60156 13.8516C2.89219 13.5562 3.12188 13.4812 3.55781 13.5234C3.97969 13.5656 4.07344 13.4906 4.12969 13.0875C4.22344 12.4172 4.63125 12.0281 5.25 12.0281C5.59219 12.0281 5.775 12.1031 6.06094 12.3562C6.17813 12.4687 6.28125 12.5156 6.38438 12.5156C6.54844 12.5156 6.75 12.3609 6.75 12.2344C6.75 12.0844 6.98906 11.6766 7.15313 11.5547C7.50938 11.2828 7.99219 11.2312 8.37656 11.4328ZM4.17188 16.1531C4.17188 16.1672 4.35 17.6766 4.57031 19.5C4.79063 21.3234 4.96875 22.8328 4.96875 22.8469C4.96875 22.8609 4.8 22.875 4.59844 22.875C4.3125 22.875 4.20469 22.8562 4.125 22.7906C4.03125 22.7156 3.94219 22.3219 3.37031 19.4531C3.01406 17.6625 2.71875 16.1812 2.71875 16.1625C2.71875 16.1391 3.04688 16.125 3.44531 16.125C3.84375 16.125 4.17188 16.1391 4.17188 16.1531ZM6.38906 16.5797C6.40781 16.8328 6.42188 17.1797 6.42188 17.3531V17.6672L6.1875 17.8875C6.04688 18.0187 5.89219 18.2297 5.80313 18.4125C5.66719 18.6844 5.64844 18.7687 5.65313 19.1016C5.65313 19.3781 5.68125 19.5469 5.76094 19.7437C5.86875 20.025 6.225 20.4609 6.43594 20.5734C6.56719 20.6437 6.57188 20.6906 6.6375 22.1812L6.66563 22.875H6.19219C5.82188 22.875 5.71875 22.8609 5.71875 22.8094C5.71875 22.7297 4.97813 16.5469 4.94063 16.2984L4.9125 16.125H5.63906H6.36094L6.38906 16.5797ZM8.60156 16.7203C8.58281 17.0531 8.56406 17.325 8.55938 17.3297C8.55469 17.3344 8.47031 17.3203 8.36719 17.2969C8.1375 17.2406 7.68281 17.2406 7.42031 17.2922C7.22344 17.3297 7.21875 17.3297 7.2 17.1844C7.18594 17.1047 7.1625 16.8328 7.14844 16.5797L7.12031 16.125H7.875H8.63438L8.60156 16.7203ZM10.8281 16.1812C10.8281 16.2141 10.65 17.7047 10.4297 19.4953C10.2094 21.2812 10.0313 22.7766 10.0313 22.8094C10.0313 22.8609 9.92813 22.875 9.55313 22.875H9.07969L9.10781 22.0922C9.12656 21.6656 9.14063 21.1687 9.14063 20.9953V20.6812L9.375 20.5125C10.2563 19.8797 10.3594 18.7031 9.59531 17.9344L9.31406 17.6484L9.32344 17.3203C9.32344 17.1375 9.34219 16.7953 9.35625 16.5562L9.38438 16.125H10.1063C10.6547 16.125 10.8281 16.1391 10.8281 16.1812ZM13.0313 16.1578C13.0313 16.1812 12.7359 17.6484 12.375 19.4297C11.6156 23.175 11.7234 22.875 11.1281 22.875C10.9359 22.875 10.7813 22.8609 10.7813 22.8422C10.7813 22.8281 10.9594 21.3187 11.1797 19.4906C11.4 17.6672 11.5781 16.1625 11.5781 16.1484C11.5781 16.1344 11.9063 16.125 12.3047 16.125C12.7031 16.125 13.0313 16.1391 13.0313 16.1578ZM8.54063 18.1172C8.98594 18.2719 9.375 18.7453 9.375 19.125C9.375 19.5141 8.98125 19.9781 8.51719 20.1422C8.175 20.2594 7.55625 20.2547 7.22344 20.1328C6.75 19.9547 6.375 19.5141 6.375 19.125C6.375 18.7875 6.71719 18.3234 7.06875 18.1781C7.54219 17.9859 8.09531 17.9625 8.54063 18.1172ZM8.41875 21.0469C8.40469 21.0844 8.38125 21.5109 8.3625 21.9937L8.33438 22.875H7.875H7.41563L7.3875 22.1812C7.36875 21.8016 7.35 21.375 7.34531 21.2344L7.33125 20.9766H7.88438C8.35313 20.9766 8.43281 20.9859 8.41875 21.0469Z" fill="#291926"/>
<path d="M5.55469 4.96407C5.45156 5.01095 5.31094 5.10938 5.24063 5.18438C4.97813 5.46563 4.96875 5.54063 4.96875 7.13438C4.96875 8.45157 4.97813 8.62032 5.05781 8.78907C5.23125 9.16876 5.63438 9.40782 6.0375 9.36094C6.36094 9.32344 8.91094 8.05782 9.16406 7.80469C9.57656 7.39688 9.53906 6.70313 9.08438 6.36095C9 6.29532 8.31094 5.93438 7.55625 5.55938C6.05156 4.80938 5.95313 4.78126 5.55469 4.96407ZM7.33594 6.29532C8.05313 6.66095 8.66719 6.99844 8.69531 7.04063C8.72813 7.10157 8.72813 7.14844 8.69063 7.20469C8.625 7.31719 6.10313 8.62032 5.95313 8.62501C5.72344 8.62501 5.71875 8.60626 5.71875 7.12501C5.71875 5.6672 5.72344 5.62032 5.92969 5.62501C5.98125 5.6297 6.61406 5.9297 7.33594 6.29532Z" fill="#291926"/>
<path d="M13.6172 9.49219C13.5422 9.5625 13.5 9.66094 13.5 9.75C13.5 9.83906 13.5422 9.9375 13.6172 10.0078C13.7297 10.125 13.7438 10.125 14.5547 10.125H15.375V10.875V11.625H14.5547C13.7438 11.625 13.7297 11.625 13.6172 11.7422C13.5422 11.8125 13.5 11.9109 13.5 12C13.5 12.0891 13.5422 12.1875 13.6172 12.2578L13.7297 12.375H17.25H20.7703L20.8828 12.2578C21.0375 12.1078 21.0375 11.8922 20.8828 11.7422C20.7703 11.625 20.7563 11.625 19.9453 11.625H19.125V10.875V10.125H19.9453C20.7563 10.125 20.7703 10.125 20.8828 10.0078C21.0375 9.85781 21.0375 9.64219 20.8828 9.49219L20.7703 9.375H17.25H13.7297L13.6172 9.49219ZM18.375 10.875V11.625H17.25H16.125V10.875V10.125H17.25H18.375V10.875Z" fill="#291926"/>
</g>
<defs>
<clipPath id="clip0_15_25">
<rect width="24" height="24" fill="white"/>
</clipPath>
</defs>
</svg>
