<svg width="24" height="24" viewBox="0 0 24 24" fill="none" xmlns="http://www.w3.org/2000/svg">
<g clip-path="url(#clip0_15_42)">
<path d="M10.8797 0.192195C7.80937 0.42657 5.02031 1.59844 3.06562 3.47813C1.82812 4.66876 1.06406 5.93907 0.679687 7.46251C0.539062 8.01563 0.529687 8.35313 0.65625 8.69063L0.754687 8.94376L0.651562 9.24376C0.571875 9.47813 0.557812 9.61876 0.571875 9.91407C0.604687 10.5281 0.890625 11.0297 1.42031 11.3813L1.59375 11.4984V12.1219V12.75L1.32656 12.8766C0.923437 13.0688 0.46875 13.5234 0.267187 13.9359C-0.173438 14.8266 -0.0515625 15.9047 0.557812 16.6031L0.745312 16.8141L0.651562 17.1047C0.482812 17.6578 0.5625 18.2531 0.871875 18.7031L1.03125 18.9375V19.9219C1.03125 21.1219 1.0875 21.45 1.39687 22.0781C1.57031 22.4297 1.6875 22.5984 1.96875 22.8797C2.55 23.4656 3.16406 23.7656 3.97031 23.8594C4.53281 23.925 19.4672 23.925 20.0297 23.8594C20.8359 23.7656 21.45 23.4656 22.0312 22.8797C22.3125 22.5984 22.4297 22.4297 22.6031 22.0781C22.9078 21.4641 22.9687 21.1125 22.9687 20.025V19.1391L23.0906 19.0266C23.4281 18.7172 23.6719 18.15 23.6719 17.6719C23.6719 17.3859 23.5687 16.9734 23.4516 16.7953C23.3859 16.6969 23.3859 16.6781 23.5031 16.5234C24.0469 15.8109 24.1406 14.7609 23.7375 13.9406C23.5312 13.5234 23.0766 13.0688 22.6734 12.8766L22.4062 12.75V12.1781V11.6016L22.6594 11.4703C22.9875 11.2969 23.3625 10.9031 23.5219 10.5609C23.6297 10.3219 23.6484 10.2281 23.6484 9.82032C23.6484 9.37969 23.6391 9.32813 23.4937 9.03282C23.3531 8.75626 23.3437 8.69532 23.3859 8.56876C23.5078 8.22657 23.3859 7.50001 23.0625 6.61876C22.2375 4.35938 20.0719 2.28751 17.4141 1.20469C15.3516 0.365633 13.1203 0.0187575 10.8797 0.192195ZM13.0359 1.12501C17.6953 1.48594 21.5109 4.13907 22.4062 7.64532C22.5187 8.08126 22.5234 8.25469 22.4297 8.43751C22.275 8.74219 23.0812 8.71876 12 8.71876C0.91875 8.71876 1.725 8.74219 1.57031 8.43751C1.47656 8.25469 1.48125 8.08126 1.59375 7.64532C2.19375 5.29219 4.17656 3.22032 6.92344 2.08126C8.8125 1.29376 10.9312 0.965632 13.0359 1.12501ZM22.7297 9.81094C22.7344 9.90938 22.7016 10.0641 22.6641 10.1625C22.4344 10.7063 21.8625 10.8844 21.1172 10.6453C20.8781 10.5703 20.6766 10.5422 20.3578 10.5375C19.7109 10.5375 19.3969 10.6453 18.6844 11.1281C18.2859 11.3906 18.0094 11.4844 17.625 11.4844C17.2406 11.4844 16.9641 11.3906 16.5656 11.1281C15.8531 10.6453 15.5531 10.5422 14.8875 10.5422C14.2359 10.5375 13.8516 10.6641 13.2422 11.0813C12.825 11.3625 12.5016 11.4797 12.1406 11.4844C11.7094 11.4844 11.5266 11.4188 10.9969 11.0813C10.7437 10.9172 10.4156 10.7391 10.2703 10.6828C9.75 10.4906 8.95781 10.4859 8.45625 10.6781C8.325 10.725 8.02031 10.8938 7.77656 11.0531C7.23281 11.4047 7.01719 11.4844 6.60469 11.4844C6.22031 11.4844 5.94375 11.3906 5.55 11.1234C4.65937 10.5188 3.99844 10.4016 3.02344 10.6641C2.52187 10.8 2.325 10.8 2.025 10.6453C1.6875 10.4719 1.5 10.1672 1.5 9.79219C1.5 9.58126 1.50937 9.55782 1.58437 9.59063C1.62656 9.61407 6.28594 9.63751 11.9391 9.64688C21.75 9.65626 22.2234 9.65157 22.4391 9.57188C22.6969 9.47344 22.725 9.49688 22.7297 9.81094ZM10.0687 11.6203C10.1766 11.6766 10.425 11.8266 10.6172 11.9531C11.1141 12.2766 11.4187 12.3797 11.9531 12.4078C12.6469 12.4453 13.0781 12.3188 13.7016 11.8969C14.1844 11.5688 14.4375 11.475 14.85 11.4797C15.3047 11.4797 15.5109 11.5547 16.0687 11.9109C16.6172 12.2672 16.9266 12.3797 17.4469 12.4125C18.1406 12.45 18.6 12.3141 19.2797 11.85C19.8469 11.4656 20.3531 11.3813 20.9766 11.5734C21.15 11.6297 21.3328 11.6719 21.3797 11.6719C21.4594 11.6719 21.4687 11.7141 21.4687 12.1406V12.6094H12H2.53125V12.1688V11.7281L2.73281 11.6953C2.84062 11.6766 3.06562 11.625 3.22969 11.5734C3.59062 11.4656 4.12969 11.4563 4.41094 11.5547C4.52344 11.5969 4.80937 11.7563 5.05312 11.9109C5.60156 12.2672 5.91094 12.3797 6.43125 12.4125C7.125 12.45 7.58437 12.3094 8.25937 11.8547C8.40937 11.7516 8.61562 11.6344 8.70937 11.5922C9.09844 11.4281 9.71719 11.4422 10.0687 11.6203ZM5.03906 14.8547C5.76094 15.5766 6.4125 16.1906 6.4875 16.2188C6.5625 16.2469 6.67969 16.2563 6.75 16.2422C6.825 16.2281 7.14375 15.9422 7.57031 15.5156C7.95937 15.1266 8.29219 14.8125 8.32031 14.8125C8.37656 14.8125 10.0312 16.4578 10.0312 16.5141C10.0312 16.5328 8.24531 16.5422 6.06094 16.5375C1.59375 16.5188 1.86094 16.5422 1.43437 16.1672C0.553125 15.3891 0.923437 13.8563 2.04844 13.6125C2.19844 13.5797 2.63437 13.5516 3.02344 13.5516L3.72187 13.5469L5.03906 14.8547ZM7.38281 13.8281L7.66406 14.1094L7.15781 14.6156L6.65625 15.1172L5.87344 14.3297L5.08594 13.5469H6.09375H7.10625L7.38281 13.8281ZM14.1094 15.4453C13.0641 16.4906 12.2109 17.3438 12.2109 17.3438C12.2109 17.3438 11.3578 16.4906 10.3125 15.4453L8.41406 13.5469H12.2109H16.0078L14.1094 15.4453ZM21.8766 13.5984C22.6172 13.7297 23.1187 14.4047 23.0484 15.1734C22.9781 15.8953 22.5234 16.3828 21.8109 16.5C21.5297 16.5469 14.3906 16.5656 14.3906 16.5234C14.3906 16.5094 15.0609 15.8344 15.8812 15.0234L17.3672 13.5516L19.4719 13.5469C20.8172 13.5469 21.6844 13.5656 21.8766 13.5984ZM22.6875 17.3719C22.7625 17.5641 22.7391 17.8641 22.6359 18.0797C22.4109 18.5484 21.8531 18.7219 21.2016 18.525C20.3016 18.2531 19.5797 18.375 18.7359 18.9469C18.2719 19.2609 18.075 19.3313 17.625 19.3313C17.1703 19.3313 16.9781 19.2609 16.5 18.9375C15.8203 18.4734 15.1875 18.3094 14.4937 18.4078C14.0437 18.4734 13.7484 18.6 13.1859 18.9703C12.8203 19.2141 12.7031 19.2656 12.4219 19.3125C11.8922 19.4016 11.5922 19.3266 11.0016 18.9469C10.4391 18.5813 10.05 18.4313 9.59062 18.3938C8.94375 18.3375 8.36719 18.5063 7.72969 18.9375C7.25625 19.2609 7.05937 19.3313 6.60937 19.3313C6.15937 19.3313 5.9625 19.2609 5.49844 18.9469C4.66406 18.3797 3.92344 18.2531 3.05156 18.5203C2.22187 18.7734 1.55625 18.4359 1.51406 17.7328C1.49062 17.3625 1.52812 17.3109 1.78594 17.3906C1.95 17.4422 2.90625 17.4609 6.51562 17.4703L11.0391 17.4891L11.5078 17.9531C12.1875 18.6328 12.2484 18.6281 12.9609 17.9109L13.3828 17.4844H17.4609C21.4641 17.4797 22.0031 17.4656 22.3828 17.3297C22.6406 17.2359 22.6359 17.2359 22.6875 17.3719ZM4.275 19.3781C4.44844 19.4156 4.67812 19.5328 4.94062 19.7063C5.70937 20.2172 6.225 20.3578 6.95156 20.2641C7.42031 20.1984 7.71094 20.0766 8.28281 19.7016C9.07969 19.1766 9.69375 19.1859 10.5 19.7344C11.5969 20.4797 12.6375 20.4797 13.7344 19.7344C14.2922 19.3547 14.6766 19.2563 15.2062 19.3594C15.4406 19.4016 15.6047 19.4766 15.9469 19.6969C16.7531 20.2219 17.2406 20.3578 17.9672 20.2641C18.4406 20.1984 18.6984 20.0906 19.2516 19.725C19.9125 19.2938 20.2875 19.2281 20.9578 19.4344C21.2109 19.5094 21.4687 19.5563 21.6937 19.5563L22.0312 19.5609V20.2266C22.0312 20.6578 22.0078 20.9766 21.9609 21.1547C21.75 21.975 21.1359 22.6078 20.3203 22.8609C20.0531 22.9406 19.6687 22.9453 12 22.9453C4.33125 22.9453 3.94687 22.9406 3.67969 22.8609C2.86406 22.6078 2.25 21.975 2.03906 21.1547C1.99219 20.9766 1.96875 20.6578 1.96875 20.1891V19.4906L2.11875 19.5234C2.40937 19.5891 2.87812 19.5516 3.25781 19.4344C3.68906 19.3031 3.9 19.2891 4.275 19.3781Z" fill="#3C3725"/>
<path d="M11.4609 2.03439C11.1469 2.34845 11.3578 2.84064 11.7984 2.82658C12.0047 2.82189 12.2344 2.60158 12.2344 2.40939C12.2344 2.2547 12.1172 2.0297 12.0047 1.96877C11.8359 1.88439 11.5828 1.91252 11.4609 2.03439Z" fill="#3C3725"/>
<path d="M13.7109 2.24531C13.4203 2.36719 13.3313 2.76094 13.5516 2.98125C13.65 3.07969 13.7906 3.12656 14.3063 3.23437C16.2703 3.64219 17.8219 4.425 19.0125 5.60156C19.5844 6.17344 19.8563 6.52969 20.1797 7.15312C20.4328 7.64062 20.5266 7.73438 20.7609 7.73438C21.0094 7.72969 21.2344 7.51406 21.2344 7.27031C21.2344 7.10625 20.7328 6.18281 20.4188 5.76094C20.0109 5.21719 19.1531 4.41094 18.5578 3.99844C17.3672 3.1875 16.0125 2.625 14.5078 2.32031C13.8844 2.19375 13.8516 2.18906 13.7109 2.24531Z" fill="#3C3725"/>
<path d="M7.15781 4.34062C6.95625 4.44843 6.86719 4.8 6.99844 4.97343C7.29375 5.35312 7.83281 5.19843 7.84687 4.73437C7.85156 4.57031 7.82812 4.51406 7.69687 4.40156C7.52812 4.25156 7.35937 4.23281 7.15781 4.34062Z" fill="#3C3725"/>
<path d="M10.725 4.40156C10.5984 4.51406 10.5703 4.57031 10.5703 4.725C10.5703 5.19375 11.1703 5.36718 11.4047 4.97343C11.5453 4.73437 11.475 4.45312 11.2453 4.33125C11.0484 4.23281 10.8938 4.25156 10.725 4.40156Z" fill="#3C3725"/>
<path d="M4.93594 6.07031C4.50937 6.25312 4.65937 6.9375 5.13281 6.9375C5.37187 6.9375 5.57812 6.73125 5.57812 6.49219C5.57812 6.2625 5.50781 6.14531 5.32031 6.06562C5.12812 5.98594 5.12344 5.98594 4.93594 6.07031Z" fill="#3C3725"/>
<path d="M9.62344 6.07031C9.19687 6.25312 9.34687 6.9375 9.82031 6.9375C10.0594 6.9375 10.2656 6.73125 10.2656 6.49219C10.2656 6.2625 10.1953 6.14531 10.0078 6.06562C9.81562 5.98594 9.81094 5.98594 9.62344 6.07031Z" fill="#3C3725"/>
<path d="M12.8953 6.40313C12.7547 6.50156 12.6562 6.73594 12.6891 6.90469C12.7219 7.06406 12.9516 7.26562 13.1062 7.26562C13.3687 7.26562 13.5891 7.05469 13.5937 6.80625C13.5937 6.6 13.5281 6.4875 13.3594 6.39844C13.1812 6.30938 13.0312 6.30938 12.8953 6.40313Z" fill="#3C3725"/>
</g>
<defs>
<clipPath id="clip0_15_42">
<rect width="24" height="24" fill="white"/>
</clipPath>
</defs>
</svg>
