<svg width="24" height="24" viewBox="0 0 24 24" fill="none" xmlns="http://www.w3.org/2000/svg">
<g clip-path="url(#clip0_15_30)">
<path d="M8.47031 0.0656172C8.175 0.145305 7.93125 0.351555 7.76719 0.646867C7.66406 0.839055 7.63125 0.965617 7.60781 1.33593C7.59375 1.57968 7.56563 1.77655 7.55156 1.76718C7.14375 1.53749 6.62813 1.49999 6.3 1.67343C6.04688 1.80937 5.75156 2.14687 5.68125 2.38124C5.52188 2.90624 5.6625 3.39843 6.08906 3.81562L6.31875 4.0453L6.12656 4.19062C6.01875 4.27499 5.88281 4.40624 5.82656 4.49062L5.72344 4.6453L5.50781 4.24218C5.38594 4.02187 5.26875 3.84374 5.25 3.84374C5.22656 3.84374 5.06719 3.91874 4.89844 4.01249C4.66406 4.14374 4.59375 4.19999 4.61719 4.26093C4.63125 4.30312 4.85625 4.7203 5.11406 5.19374C5.36719 5.66718 5.57813 6.0703 5.57813 6.09374C5.57813 6.11718 5.53594 6.14999 5.48438 6.16405C5.40938 6.18749 5.26406 6.07968 4.79063 5.64374C4.4625 5.33905 4.12031 5.0203 4.03125 4.94062L3.86719 4.78593L3.6 5.08593L3.33281 5.38124L4.09688 6.08437L4.86094 6.79218L4.73438 7.04999C4.54688 7.4203 4.47656 7.89843 4.54219 8.31562C4.6125 8.75624 4.8 9.11718 5.22656 9.65156L5.57813 10.0922V13.4344V16.7812H6H6.42188L6.43125 13.7859L6.44531 10.7859L6.76875 10.9969C6.94688 11.1094 7.13906 11.2031 7.2 11.2031C7.25625 11.2031 7.53281 11.0531 7.80938 10.8703C8.08594 10.6875 8.33906 10.5281 8.37188 10.5141C8.40469 10.5047 8.66719 10.6547 8.9625 10.8469C9.25313 11.0437 9.52969 11.2031 9.57656 11.2031C9.69375 11.2031 9.89063 11.0953 10.3688 10.7766C10.5938 10.6219 10.7906 10.5 10.8047 10.5C10.8188 10.5 11.0672 10.6594 11.3578 10.8516C11.6625 11.0578 11.9297 11.2031 12 11.2031C12.0703 11.2031 12.3375 11.0578 12.6422 10.8516C12.9328 10.6594 13.1859 10.5 13.2047 10.5C13.2281 10.5 13.3266 10.5562 13.4297 10.6266C13.9125 10.9641 14.325 11.2031 14.4141 11.2031C14.4656 11.2031 14.7469 11.0437 15.0375 10.8469C15.3328 10.6547 15.6 10.5047 15.6375 10.5187C15.675 10.5328 15.8625 10.65 16.0547 10.7812L16.4063 11.0203V17.1094V23.2031H12H7.59375V23.6016V24H13.3031C19.4391 24 19.2609 24.0047 19.7391 23.7656C20.2031 23.5266 20.6203 22.9828 20.7375 22.4531C20.8031 22.1672 20.8125 21.4078 20.8125 16.0594C20.8125 12.1828 20.7938 9.94687 20.7656 9.86718C20.7281 9.76406 20.8922 9.29531 21.9141 6.56718C22.6313 4.64999 23.1281 3.26249 23.1609 3.0703C23.3906 1.73905 22.4953 0.37968 21.1828 0.0703047C20.3344 -0.12657 19.4109 0.140617 18.7875 0.764055C18.4219 1.12968 18.2813 1.38749 17.8828 2.46093C17.7047 2.92499 17.5547 3.31405 17.5453 3.32343C17.5359 3.33749 17.3625 3.17812 17.1563 2.97655L16.7813 2.60155V1.82343C16.7813 1.12499 16.7719 1.03124 16.6922 0.932805L16.6031 0.820305L14.2547 0.806242C12.6 0.796867 11.8781 0.81093 11.8078 0.84843C11.6625 0.92343 11.5781 1.17655 11.5781 1.52812C11.5781 1.69687 11.5641 1.82812 11.5453 1.81874C10.9781 1.52812 10.6266 1.4953 10.2234 1.69687L9.98438 1.81405V1.38749C9.98438 1.04062 9.96563 0.918742 9.87188 0.726555C9.73125 0.41718 9.44531 0.164055 9.13594 0.0749922C8.84531 -0.0140703 8.77031 -0.0140703 8.47031 0.0656172ZM9.00469 0.857805C9.16875 0.984367 9.1875 1.11093 9.1875 2.03905C9.1875 2.95312 9.1875 2.9578 9.30469 3.0703C9.38438 3.15468 9.46875 3.18749 9.59063 3.18749C9.74063 3.18749 9.80625 3.14062 10.1672 2.79374C10.3875 2.57812 10.6172 2.38593 10.6781 2.36718C10.8328 2.3203 11.0531 2.42812 11.1375 2.59218C11.2219 2.75155 11.1938 3.00468 11.0766 3.09843C11.0391 3.13593 10.6875 3.49218 10.3078 3.89999L9.60938 4.63593V6.4828V8.32499L9.46875 8.46093L9.32813 8.59218L9.25781 8.41874C9.21563 8.32499 9.01875 7.90312 8.8125 7.47655C8.50781 6.84374 8.39531 6.66562 8.18438 6.45468C7.88438 6.15468 7.45781 5.92968 7.04063 5.84999C6.77813 5.80312 6.73594 5.77499 6.58594 5.58749C6.39375 5.33905 6.36563 5.0953 6.51563 4.9078C6.6375 4.75312 6.80625 4.71562 7.0125 4.80468C7.26094 4.9078 7.43906 4.89374 7.57031 4.7578C7.725 4.6078 7.72031 4.41093 7.56094 4.20937C7.49063 4.12499 7.20938 3.8203 6.92813 3.53437C6.45469 3.04687 6.42188 2.99999 6.42188 2.82655C6.42188 2.47499 6.73125 2.25468 7.01719 2.40937C7.0875 2.44687 7.30781 2.63905 7.5 2.83124C7.80469 3.1453 7.87031 3.18749 8.02031 3.18749C8.1375 3.18749 8.21719 3.15468 8.30156 3.06562C8.41406 2.94843 8.41406 2.92968 8.42813 1.96405L8.44219 0.984367L8.56406 0.890617C8.7 0.787492 8.89219 0.768742 9.00469 0.857805ZM21.3047 0.956242C22.0172 1.27968 22.4813 2.10937 22.3875 2.87343C22.3688 3.01405 21.8156 4.54687 21.0797 6.51562L19.8 9.91406L19.5094 10.1156L19.2141 10.3219L18.675 9.96562C18.3281 9.73593 18.0844 9.60937 18 9.60937C17.9156 9.60937 17.6766 9.73593 17.3297 9.96562L16.7906 10.3172L16.3875 10.0547L15.9891 9.78749L16.125 9.42656C17.3297 6.17812 18.9703 1.85155 19.0594 1.69687C19.2891 1.3078 19.7109 0.984367 20.1516 0.857805C20.4703 0.768742 20.9906 0.81093 21.3047 0.956242ZM15.9844 1.99218V2.39062H14.2031H12.4219V1.99218V1.59374H14.2031H15.9844V1.99218ZM14.8359 3.79687L14.2266 4.40624H12.5859H10.9453L11.5547 3.79687L12.1641 3.18749H13.8047H15.4453L14.8359 3.79687ZM16.8234 3.76874C17.1516 4.09687 17.2125 4.18124 17.1891 4.27499C17.1703 4.33124 16.6969 5.61562 16.1344 7.1203C15.1828 9.65624 15.0984 9.86249 14.9578 9.94687L14.8125 10.0406V7.4953V4.9453L15.5953 4.16249C16.0266 3.72655 16.3922 3.37499 16.4063 3.37499C16.4203 3.37499 16.6078 3.55312 16.8234 3.76874ZM14.0109 7.55624C14.0063 9.89531 14.0063 9.91406 13.9266 9.60937C13.8188 9.21562 13.725 8.99999 13.5563 8.75624C12.9563 7.88905 11.8781 7.44374 10.8984 7.65468C10.7203 7.69218 10.5328 7.73905 10.4906 7.7578C10.4109 7.79062 10.4063 7.71093 10.4063 6.49687V5.20312H12.2109H14.0156L14.0109 7.55624ZM7.23281 6.74062C7.62656 6.91405 7.7625 7.11562 8.34375 8.34843C8.70469 9.12656 8.87344 9.53437 8.86875 9.62812C8.85469 9.81562 8.84063 9.82031 8.68125 9.70781C8.44688 9.54374 8.32031 9.57656 7.74375 9.96562L7.20938 10.3172L6.76875 10.0312C6.52969 9.87187 6.30938 9.71249 6.28125 9.67968C6.24375 9.63281 6.34688 9.52968 6.72656 9.23437C6.99844 9.02343 7.21875 8.83124 7.21875 8.80781C7.21875 8.76562 6.79688 8.20312 6.76406 8.20312C6.75469 8.20312 6.52031 8.38124 6.24375 8.59687L5.74219 8.99531L5.63438 8.86874C5.2125 8.38593 5.21719 7.59843 5.64375 7.08749C5.79375 6.91405 6.12188 6.7078 6.34219 6.65155C6.57188 6.5953 6.99375 6.63749 7.23281 6.74062ZM12.0609 8.53124C12.3844 8.65312 12.7547 8.97656 12.9422 9.29999C13.0172 9.43124 13.0781 9.55312 13.0781 9.56718C13.0781 9.58124 12.8391 9.75468 12.5438 9.95624L12.0094 10.3219L11.4797 9.96562C11.1094 9.71718 10.9031 9.60937 10.8047 9.60937C10.7063 9.60937 10.5 9.71718 10.1297 9.96562L9.59531 10.3219L9.61875 10.0172C9.67969 9.27656 10.2844 8.59218 11.025 8.43749C11.3156 8.37656 11.7516 8.41874 12.0609 8.53124ZM18.5813 10.8703C18.8578 11.0531 19.1344 11.2031 19.1906 11.2031C19.2516 11.2031 19.4438 11.1094 19.6219 10.9922C19.8 10.8797 19.9594 10.7812 19.9828 10.7812C20.0016 10.7812 20.0109 13.3687 20.0063 16.5328L19.9922 22.2891L19.8844 22.5094C19.8234 22.6359 19.6875 22.8047 19.5844 22.8937C19.2703 23.1656 19.0828 23.2031 18.0844 23.2031H17.2031V17.1094V11.0156L17.5922 10.7578C17.8031 10.6172 18 10.5094 18.0281 10.5187C18.0563 10.5281 18.3047 10.6875 18.5813 10.8703Z" fill="#3C3725"/>
<path d="M19.5844 3.5953C19.3828 3.65624 19.2188 3.72655 19.2188 3.75468C19.2188 3.83905 19.9312 6.01874 19.9734 6.06562C20.025 6.12187 20.7187 5.91093 20.7141 5.84062C20.7141 5.81249 20.5406 5.26874 20.3297 4.63593L19.9453 3.4828L19.5844 3.5953Z" fill="#3C3725"/>
<path d="M18.3891 6.40781C18.2016 6.46874 18.0469 6.54843 18.0469 6.57656C18.0469 6.65156 18.7781 8.85468 18.8109 8.88749C18.8391 8.91562 19.4531 8.72812 19.5141 8.67187C19.5516 8.63906 18.8016 6.27656 18.75 6.28593C18.7359 6.28593 18.5719 6.34218 18.3891 6.40781Z" fill="#3C3725"/>
<path d="M3.22031 16.0172C3.20156 16.0312 3.1875 16.2094 3.1875 16.4109V16.7765L3.375 16.8281C3.59062 16.8844 3.82031 17.0672 3.91406 17.2547C3.95156 17.325 3.98437 17.5031 3.98437 17.6484V17.9062L3.80625 17.8172C2.925 17.3672 1.73906 17.6765 1.18594 18.5109C0.876562 18.9703 0.820312 19.1906 0.825 19.8984C0.834375 20.8734 1.04531 21.7219 1.52344 22.7203C1.81875 23.3344 2.0625 23.6109 2.49844 23.8172C3.01875 24.0609 3.53906 24.0469 4.13437 23.7797L4.41094 23.6578L4.67812 23.7797C5.44687 24.1359 6.17344 24.0422 6.75 23.5031C7.31719 22.9734 7.84688 21.5578 7.96875 20.264C8.0625 19.2515 7.88438 18.6937 7.28906 18.1453C6.70781 17.6109 5.78906 17.4609 5.07187 17.789C4.93125 17.8547 4.80937 17.9062 4.80469 17.9062C4.8 17.9062 4.78125 17.7328 4.77187 17.5172C4.74375 16.9828 4.54219 16.6078 4.125 16.2984C3.87187 16.1156 3.3 15.9328 3.22031 16.0172ZM3.42187 18.5203C3.53906 18.5719 3.75 18.7265 3.89062 18.8672C4.32656 19.2937 4.45312 19.2984 4.89375 18.8812C5.25937 18.5437 5.52187 18.4219 5.90625 18.4219C6.43594 18.4219 6.8625 18.6984 7.0875 19.1953C7.17188 19.3922 7.19063 19.5 7.18125 19.875C7.16719 20.7375 6.95156 21.5859 6.54375 22.3969C6.30938 22.8656 6.09844 23.0765 5.80313 23.1609C5.51719 23.2359 5.27812 23.189 4.81406 22.964L4.41094 22.7719L3.975 22.9781C3.32812 23.2781 2.925 23.2547 2.55937 22.889C1.99219 22.3265 1.42969 20.1281 1.65469 19.3547C1.77187 18.9515 2.08594 18.6094 2.46094 18.4781C2.70469 18.3937 3.1875 18.4125 3.42187 18.5203Z" fill="#3C3725"/>
</g>
<defs>
<clipPath id="clip0_15_30">
<rect width="24" height="24" fill="white"/>
</clipPath>
</defs>
</svg>

