<svg width="24" height="24" viewBox="0 0 24 24" fill="none" xmlns="http://www.w3.org/2000/svg">
<path d="M5.67187 2.60626C5.175 2.73751 4.71562 3.14064 4.49531 3.63282C4.40625 3.8297 4.3875 3.97501 4.36875 4.55626L4.35 5.24064L3.33281 5.25939L2.32031 5.27345L2.06719 5.41407C1.81406 5.5547 1.67812 5.70001 1.51875 6.00001C1.43906 6.14532 1.42969 6.28126 1.42969 7.28907C1.42969 8.33439 1.43437 8.43282 1.53281 8.66251C1.58906 8.79845 1.70156 9.00001 1.78594 9.11251C1.9875 9.37032 2.27812 9.59064 2.5875 9.7172C2.82656 9.81564 2.90156 9.82032 5.05312 9.83439L7.26562 9.84845V14.7094C7.26562 17.6531 7.28437 19.6969 7.3125 19.8891C7.34062 20.0672 7.41562 20.325 7.48594 20.4703C7.65 20.8031 8.07187 21.1922 8.42344 21.3375L8.69531 21.4453L15 21.4594C19.5047 21.4688 21.375 21.4594 21.5484 21.4219C21.8578 21.3563 22.1297 21.1547 22.2984 20.8734C22.4203 20.6625 22.4297 20.6109 22.4437 20.025C22.4672 19.2797 22.4437 19.1297 22.2797 18.9328C22.0406 18.6516 21.8766 18.6094 20.9203 18.6094H20.0625V17.2313V15.8531L20.2406 15.7969C20.6344 15.6703 21.1547 15.3516 21.4922 15.0375C22.1016 14.4656 22.4484 13.7813 22.5562 12.9188C22.7391 11.4563 21.825 9.96564 20.4141 9.4172L20.0859 9.28595L20.0625 6.62345C20.0437 4.89845 20.0203 3.90939 19.9828 3.82032C19.8 3.30001 19.4719 2.9297 18.9937 2.7047L18.6797 2.5547L12.3047 2.54532C6.80625 2.53595 5.89219 2.54532 5.67187 2.60626ZM18.5719 3.23439C18.8344 3.30939 19.1297 3.55782 19.2609 3.82032L19.3828 4.05001L19.3969 6.61407L19.4109 9.17345L18.975 9.20157C16.6125 9.34689 15.1359 11.8125 16.1109 13.9828C16.6172 15.1031 17.7937 15.9 19.0312 15.9469L19.3828 15.9609L19.3969 17.2875L19.4062 18.6094H15.1547C11.1234 18.6094 10.8891 18.6141 10.7109 18.6984C10.3828 18.8484 10.2187 19.1344 10.2187 19.5609C10.2187 19.6969 10.1859 19.9266 10.1437 20.0672C9.87187 20.9859 8.55469 21.0656 8.07187 20.1844C7.99687 20.0484 7.99219 19.4906 7.96875 12.0234C7.94531 4.36876 7.94062 3.99845 7.85625 3.77814C7.80937 3.65157 7.72031 3.46407 7.65937 3.36564L7.54687 3.18751H12.9703C16.5656 3.18751 18.4594 3.20626 18.5719 3.23439ZM4.35937 7.02189C4.35937 8.34845 4.32656 8.50782 4.00781 8.82657C3.79687 9.03751 3.47812 9.18751 3.23437 9.18751C2.95781 9.18751 2.62969 9.04689 2.41875 8.83126C2.10469 8.52189 2.0625 8.3297 2.0625 7.27032C2.0625 5.91564 2.07187 5.90626 3.45937 5.90626H4.35937V7.02189ZM20.1937 10.8C20.7797 11.0016 21.4359 11.4703 21.4922 11.7188C21.5109 11.8031 21.4875 11.8781 21.4219 11.9672C21.2766 12.15 21.1078 12.1359 20.8312 11.9063C19.8609 11.1047 18.5812 11.0906 17.6109 11.8688C17.2781 12.1313 17.1187 12.1594 16.9734 11.9719C16.8234 11.7797 16.8516 11.6766 17.1328 11.4094C17.4187 11.1375 18.0141 10.8234 18.4453 10.7109C18.8859 10.6031 19.7578 10.6453 20.1937 10.8ZM19.875 11.9484C20.1984 12.0703 20.5875 12.3609 20.6437 12.5297C20.6812 12.6328 20.6719 12.6844 20.5922 12.7875C20.4469 12.9797 20.2641 12.9797 20.0156 12.7734C19.7953 12.6 19.4437 12.4688 19.1953 12.4688C18.9422 12.4688 18.5766 12.6047 18.375 12.7734C18.15 12.9609 17.9812 12.9797 17.8266 12.8344C17.6812 12.6984 17.6906 12.5531 17.8547 12.3609C18.2812 11.8781 19.1953 11.6906 19.875 11.9484ZM19.5422 13.3031C19.7531 13.4625 19.8375 13.6125 19.8375 13.8516C19.8375 14.2219 19.5703 14.4938 19.2047 14.4938C18.9234 14.4938 18.7266 14.3719 18.6094 14.1328C18.4922 13.8938 18.4922 13.8094 18.6047 13.5656C18.7641 13.2094 19.2422 13.0781 19.5422 13.3031Z" fill="#3C2538"/>
<path d="M10.0594 4.74374C10.0172 4.79999 9.98438 4.88437 9.98438 4.92655C9.98438 4.97343 9.91406 5.0203 9.80156 5.05312C9.45469 5.16093 9.17344 5.60624 9.25313 5.92499C9.3 6.11249 9.49688 6.30936 9.75 6.41718L9.98438 6.5203V6.8203C9.98438 7.16249 9.96094 7.17655 9.62813 7.05937C9.36563 6.9703 9.23438 7.03124 9.23438 7.25155C9.23438 7.39218 9.38906 7.49061 9.7125 7.55624C9.96094 7.6078 9.97969 7.62186 10.0078 7.76249C10.0547 8.02968 10.3359 8.0203 10.3688 7.74843C10.3781 7.65936 10.425 7.61718 10.5563 7.5703C10.9641 7.43436 11.1563 7.1953 11.1563 6.83437C11.1563 6.54843 10.9734 6.32343 10.6266 6.19686L10.3828 6.10312L10.3688 5.83593C10.35 5.44687 10.3547 5.44218 10.6594 5.49843C10.9641 5.55468 11.0766 5.49843 11.0531 5.30155C11.0391 5.16093 10.8891 5.07655 10.5844 5.02499C10.4156 4.99687 10.3781 4.96874 10.3688 4.87499C10.3313 4.63124 10.1813 4.5703 10.0594 4.74374ZM9.98438 5.74218C9.98438 5.8828 9.96563 5.99999 9.9375 5.99999C9.86719 5.99999 9.70313 5.82187 9.70313 5.74218C9.70313 5.67187 9.88125 5.48437 9.94688 5.48437C9.96563 5.48437 9.98438 5.60155 9.98438 5.74218ZM10.5469 6.67968C10.6359 6.72655 10.6875 6.78749 10.6875 6.85312C10.6875 6.97968 10.5609 7.12499 10.4438 7.12499C10.3734 7.12499 10.3594 7.08749 10.3594 6.86718C10.3594 6.72655 10.3688 6.60936 10.3828 6.60936C10.4016 6.60936 10.4719 6.64218 10.5469 6.67968Z" fill="#3C2538"/>
<path d="M13.8516 5.30625C13.7203 5.38125 13.6875 5.4375 13.6875 5.60625C13.6875 5.91093 13.6453 5.90625 15.8531 5.90625C17.7234 5.90625 17.85 5.90156 17.9203 5.82187C18.0422 5.68593 18.0234 5.46093 17.8781 5.34843C17.7562 5.25468 17.7047 5.25 15.8484 5.25C14.5172 5.25468 13.9172 5.26875 13.8516 5.30625Z" fill="#3C2538"/>
<path d="M13.7906 7.48125C13.7156 7.53281 13.6875 7.59843 13.6875 7.73437C13.6875 8.06718 13.6406 8.0625 15.8531 8.0625C17.7516 8.0625 17.8172 8.05781 17.9063 7.96875C17.9578 7.91718 18 7.81406 18 7.73437C18 7.65468 17.9578 7.55156 17.9063 7.5C17.8172 7.41093 17.7516 7.40625 15.8531 7.40625C14.1563 7.40625 13.8797 7.41562 13.7906 7.48125Z" fill="#3C2538"/>
<path d="M8.95313 11.25C8.81719 11.3859 8.83125 11.5969 8.98125 11.7141C9.10313 11.8125 9.14531 11.8125 11.9109 11.8125C13.9547 11.8125 14.7469 11.7984 14.8359 11.7562C15.0234 11.6719 15.0656 11.4047 14.9203 11.2359C14.85 11.1609 14.6484 11.1562 11.9438 11.1562C9.10781 11.1562 9.04688 11.1562 8.95313 11.25Z" fill="#3C2538"/>
<path d="M8.98125 13.5984C8.83125 13.7156 8.81719 13.9266 8.95313 14.0625C9.04688 14.1562 9.10781 14.1562 11.9438 14.1562C14.6484 14.1562 14.85 14.1516 14.9203 14.0719C15.0656 13.9078 15.0234 13.6406 14.8359 13.5562C14.7469 13.5141 13.9547 13.5 11.9109 13.5C9.14531 13.5 9.10313 13.5 8.98125 13.5984Z" fill="#3C2538"/>
<path d="M8.95313 15.9844C8.81719 16.1203 8.83125 16.3312 8.98125 16.4484C9.10313 16.5469 9.14531 16.5469 11.9578 16.5469C14.7516 16.5469 14.8125 16.5469 14.9063 16.4531C15.0422 16.3172 15.0469 16.1156 14.9203 15.9703C14.85 15.8953 14.6484 15.8906 11.9438 15.8906C9.10781 15.8906 9.04688 15.8906 8.95313 15.9844Z" fill="#3C2538"/>
</svg>
