<svg width="24" height="24" viewBox="0 0 24 24" fill="none" xmlns="http://www.w3.org/2000/svg">
<path d="M3.82031 0.328118C3.3 0.431243 2.74687 0.759368 2.43281 1.14843C2.35312 1.25156 2.21719 1.47187 2.1375 1.64062L1.99219 1.94531L1.97812 11.9062C1.96875 22.8422 1.95 22.0922 2.24062 22.5891C2.54062 23.1047 3.20156 23.5547 3.81562 23.6672C4.00312 23.7047 5.84531 23.7187 9.51094 23.7187C15.4359 23.7187 15.225 23.7281 15.7875 23.4422C16.2938 23.1844 16.6641 22.7719 16.8844 22.2234C16.9828 21.975 16.9875 21.8766 17.0156 20.1891L17.0391 18.4172L17.5266 18.2578C18.8953 17.7984 20.1234 16.8656 20.9063 15.6937C21.2906 15.1172 21.4875 14.7187 21.7031 14.0672C21.9422 13.3453 22.0313 12.7828 22.0313 12C22.0313 10.2094 21.375 8.62031 20.1094 7.35937C19.3406 6.59062 18.4922 6.06562 17.5125 5.74218L17.0391 5.58749L17.0109 3.83906C16.9828 1.87031 16.9781 1.82343 16.6313 1.31249C16.425 0.99843 16.0969 0.71718 15.7406 0.534368C15.2297 0.276555 15.3844 0.281243 9.46875 0.28593C6.46406 0.290618 3.92344 0.309368 3.82031 0.328118ZM15.3328 1.17656C15.6891 1.34531 15.9563 1.59843 16.1109 1.91249L16.2422 2.17968L16.2563 3.80624L16.2703 5.43749H16.0594H15.8438V4.75312V4.06874L15.7078 3.93281L15.5719 3.79687H9.47812H3.38906L3.2625 3.89531L3.14062 3.98906V12.2578V20.5266L3.2625 20.6203L3.38906 20.7187H9.4875C15.5672 20.7187 15.5906 20.7187 15.6938 20.625C15.75 20.5687 15.8016 20.5219 15.8063 20.5172C15.8109 20.5125 15.825 20.0766 15.8391 19.5469L15.8672 18.5859L16.0688 18.5719L16.2703 18.5578L16.2563 20.1891C16.2422 21.7734 16.2375 21.825 16.1344 22.0547C15.9891 22.3734 15.6984 22.6547 15.3563 22.8141L15.0703 22.9453H9.46875H3.86719L3.55312 22.7906C3.36094 22.6969 3.16875 22.5562 3.05156 22.425C2.69062 22.0125 2.71875 22.9125 2.71875 12.0094C2.71875 4.88437 2.73281 2.18906 2.77031 2.06249C2.89687 1.64531 3.40781 1.18593 3.8625 1.08281C3.975 1.05937 6.30469 1.04531 9.5625 1.04531L15.0703 1.05468L15.3328 1.17656ZM15.0844 4.97812L15.0703 5.40937L14.6203 5.46562C11.8078 5.81718 9.53437 7.94999 8.96719 10.7672C8.85 11.3437 8.85 12.6562 8.96719 13.2328C9.51094 15.9234 11.6484 18.0328 14.2969 18.4875C14.5406 18.5297 14.8172 18.5672 14.9063 18.5719L15.0703 18.5859L15.0844 19.275L15.0984 19.9687H9.49219H3.89062V12.2578V4.54687H9.49219H15.0984L15.0844 4.97812ZM16.6031 6.28593C17.7609 6.51562 18.7031 7.02656 19.575 7.89374C20.7 9.01406 21.2813 10.4109 21.2813 12C21.2813 14.2031 20.0672 16.1906 18.1125 17.1891C17.2172 17.6484 16.4203 17.8359 15.3984 17.8266C13.1672 17.8172 11.2125 16.5797 10.2187 14.5547C10.0641 14.2453 9.89531 13.8328 9.84375 13.6406C9.44531 12.2016 9.56719 10.7859 10.1906 9.49218C10.9687 7.88906 12.3047 6.78749 14.0203 6.34687C14.8641 6.12656 15.7078 6.10781 16.6031 6.28593Z" fill="#3C2538"/>
<path d="M6.29062 1.88906C6.08437 2.10469 6.20625 2.64844 6.52969 2.99531C6.61406 3.07969 6.7875 3.20156 6.91406 3.2625L7.14844 3.375H9.45C11.0672 3.375 11.7984 3.36094 11.9109 3.31875C12.1594 3.23906 12.3984 3.04688 12.5672 2.79844C12.6937 2.61563 12.7266 2.5125 12.7406 2.27344C12.7594 2.02031 12.7453 1.96406 12.6609 1.87969C12.5531 1.77188 12.3328 1.74844 12.1875 1.82813C12.1078 1.87031 12.0469 2.01094 11.9812 2.31094C11.9625 2.38594 11.8875 2.47969 11.7984 2.53125C11.6531 2.62031 11.5547 2.625 9.47812 2.625C7.53281 2.625 7.28906 2.61563 7.17187 2.54531C7.02187 2.46094 6.9375 2.30625 6.9375 2.12813C6.9375 1.82813 6.49687 1.66875 6.29062 1.88906Z" fill="#3C2538"/>
<path d="M8.83594 21.5859C8.76094 21.6562 8.71875 21.7547 8.71875 21.8437C8.71875 21.9328 8.76094 22.0312 8.83594 22.1016C8.94375 22.2141 8.98125 22.2188 9.46875 22.2188C9.95625 22.2188 9.99375 22.2141 10.1016 22.1016C10.1766 22.0312 10.2188 21.9328 10.2188 21.8437C10.2188 21.7547 10.1766 21.6562 10.1016 21.5859C9.99375 21.4734 9.95625 21.4687 9.46875 21.4687C8.98125 21.4687 8.94375 21.4734 8.83594 21.5859Z" fill="#3C2538"/>
<path d="M12.9797 7.19062C12.3375 7.36406 11.8594 7.90312 11.6672 8.67187C11.5734 9.03281 11.5875 9.96093 11.6906 10.4531C11.8734 11.3203 12.2672 12.2953 12.7828 13.1625C13.6875 14.6812 15.1031 16.0547 16.3031 16.575C17.5781 17.1328 18.6937 16.8797 19.1719 15.9234C19.3359 15.5953 19.35 15.3469 19.2234 15.0703C19.1203 14.8406 17.6297 13.3781 17.4047 13.2844C17.1844 13.1906 16.8984 13.2047 16.3406 13.3359C16.0687 13.4016 15.8297 13.4531 15.8109 13.4531C15.6937 13.4531 14.8219 12.225 14.4562 11.55L14.2781 11.2219L14.5875 10.7766C15.1734 9.93281 15.1734 9.91874 14.7141 8.74687C14.3203 7.75312 14.2031 7.51406 14.0531 7.37343C13.8 7.13906 13.4156 7.07343 12.9797 7.19062ZM13.5656 7.97812C13.65 8.11406 14.2969 9.73124 14.2969 9.81093C14.2969 9.84374 14.1375 10.1016 13.9453 10.3781C13.5422 10.9687 13.4766 11.1281 13.5422 11.3672C13.7062 11.9625 15.0516 13.9219 15.4359 14.1328C15.6234 14.2312 15.8531 14.2172 16.5844 14.0625L17.1094 13.9453L17.8453 14.6812L18.5766 15.4125L18.5156 15.5578C18.4359 15.7547 18.1359 16.0125 17.9203 16.0734C16.6687 16.4203 14.5453 14.7891 13.2797 12.5062C12.1078 10.4016 12.0328 8.32499 13.1062 7.94531C13.3687 7.85156 13.4859 7.86093 13.5656 7.97812Z" fill="#3C2538"/>
</svg>
