<svg width="24" height="24" viewBox="0 0 24 24" fill="none" xmlns="http://www.w3.org/2000/svg">
<g clip-path="url(#clip0_15_52)">
<path d="M21.4453 0.065628C20.7656 0.225003 19.95 0.600003 19.1484 1.12969C18.7031 1.42032 18.4359 1.65938 17.25 2.83594L15.8672 4.20938L15.4453 4.07813C15.2156 4.00782 14.6672 3.83907 14.2266 3.70782C13.7906 3.57188 13.4016 3.45469 13.3641 3.44063C13.3172 3.42657 13.4531 3.25782 13.7906 2.91563C14.0625 2.63907 14.3109 2.36719 14.3391 2.31094C14.4281 2.1375 14.4 1.80938 14.2828 1.63594C14.1422 1.425 13.8141 1.28907 13.5656 1.33125C13.4109 1.36407 13.2656 1.48594 12.5812 2.16563L11.775 2.9625L11.3625 2.83594C11.1328 2.77032 10.7062 2.63907 10.4156 2.54532L9.88125 2.38125L10.2609 1.99688C10.4672 1.78125 10.6594 1.55157 10.6875 1.48125C10.8094 1.15313 10.6875 0.787503 10.3969 0.609378C10.2234 0.506253 9.9 0.482815 9.73594 0.56719C9.67969 0.595315 9.3375 0.909378 8.97656 1.27032L8.32031 1.91719L6.86719 1.47188C4.75781 0.82969 4.77187 0.82969 4.56094 0.88594C4.31719 0.951565 2.50781 2.75157 2.4375 3C2.37656 3.21094 2.45156 3.47813 2.61562 3.65157C2.69531 3.74063 4.35937 4.60313 7.21875 6.05156C9.67969 7.29375 11.7047 8.32031 11.7141 8.32969C11.7281 8.33906 11.1984 8.8875 10.5422 9.55313C9.45469 10.6453 9.20156 10.9359 7.80937 12.6656L6.27187 14.5734L4.17656 13.5281C3.02812 12.9516 2.025 12.4688 1.95469 12.45C1.63594 12.375 1.51406 12.4453 0.782812 13.1625C0.0421874 13.8984 -0.0421876 14.0297 0.0187499 14.3766C0.0515624 14.5313 0.257812 14.7609 1.78594 16.2938L3.52031 18.0328L3.44062 18.3047C3.20625 19.125 3.66094 20.0625 4.48594 20.4469C4.87031 20.6297 5.37656 20.6719 5.74219 20.5594L5.97656 20.4844L6.29062 20.7984L6.60937 21.1125L5.72344 22.0078C4.79062 22.95 4.69219 23.0906 4.75781 23.4047C4.82344 23.7 5.06719 23.9297 5.34375 23.9531C5.70937 23.9859 5.69531 23.9953 6.66562 23.0297L7.59375 22.1063L8.52187 23.025C9.79219 24.2906 9.75469 24.2859 10.7766 23.2781C11.4469 22.6172 11.5781 22.4391 11.5781 22.1766C11.5781 22.0875 11.1937 21.2625 10.5187 19.9172C9.9375 18.7547 9.47344 17.775 9.4875 17.7422C9.49687 17.7141 10.3781 16.9828 11.4469 16.125C13.1812 14.7234 13.5047 14.4422 14.5312 13.4203L15.6797 12.2813L17.1281 15.1313C20.475 21.7078 20.2922 21.3656 20.4656 21.4734C20.6578 21.5906 20.9766 21.6 21.1687 21.5016C21.3281 21.4172 23.0297 19.7109 23.1047 19.5609C23.1328 19.5047 23.1562 19.3828 23.1562 19.2891C23.1562 19.1953 22.9219 18.3469 22.6359 17.4047L22.1156 15.6938L22.7719 15.0281C23.475 14.3156 23.5781 14.1516 23.5125 13.8094C23.4703 13.5891 23.2078 13.3266 22.9922 13.2844C22.6547 13.2234 22.5094 13.2938 22.0687 13.725C21.8437 13.9453 21.6516 14.1188 21.6422 14.1047C21.6328 14.0953 21.4969 13.6688 21.3422 13.1625L21.0609 12.2391L21.8062 11.4984C22.2187 11.0906 22.5844 10.7016 22.6219 10.6313C22.8516 10.1953 22.5047 9.60938 22.0172 9.60938C21.7641 9.60938 21.6937 9.65625 21.1219 10.2094C20.6391 10.6828 20.6109 10.7016 20.5687 10.5984C20.55 10.5375 20.3719 9.96094 20.175 9.31875L19.8187 8.14688L21.1781 6.77813C22.6687 5.27813 22.9359 4.93594 23.4609 3.86719C24.3234 2.10469 24.1172 0.750003 22.8891 0.178128C22.6312 0.056253 22.5141 0.0328155 22.1531 0.018753C21.9 0.00937796 21.6141 0.028128 21.4453 0.065628ZM22.3547 1.47657C22.8281 1.72032 22.5516 2.82188 21.6844 4.13438C21.3984 4.575 20.9766 5.0625 20.8875 5.0625C20.8594 5.0625 20.4047 4.62657 19.875 4.09688L18.9141 3.13594L19.1953 2.87344C19.7531 2.34375 20.9391 1.65 21.5625 1.48594C21.9 1.39219 22.1906 1.3875 22.3547 1.47657ZM7.80469 3.22969C9.32812 3.68907 11.4984 4.34532 12.6328 4.69219C13.7672 5.03438 14.7047 5.32031 14.7187 5.32969C14.7281 5.33906 14.3016 5.78438 13.7672 6.31875L12.7969 7.28906L11.3812 6.57656C10.5984 6.18281 8.91562 5.33438 7.64062 4.6875C6.36562 4.04063 5.09062 3.39375 4.80937 3.24844L4.29844 2.99063L4.61719 2.67188C4.79062 2.49375 4.95937 2.35782 4.9875 2.37188C5.01562 2.38125 6.28594 2.76563 7.80469 3.22969ZM18.9281 5.12344L19.875 6.07031L16.1109 9.82969L12.3516 13.5844L9.02344 16.2703C7.19531 17.7469 5.625 19.0125 5.54062 19.0875C5.325 19.2703 5.14219 19.2609 4.94062 19.0594C4.7625 18.8813 4.73906 18.7359 4.86094 18.5625C4.90312 18.5016 6.19219 16.8984 7.725 15.0047L10.5094 11.5547L14.1984 7.86094C16.2234 5.83125 17.9062 4.17188 17.9297 4.17188C17.9578 4.17188 18.4031 4.59844 18.9281 5.12344ZM20.1562 14.0906C20.9578 16.7156 21.6234 18.9188 21.6375 18.9844C21.6562 19.0828 21.6094 19.1531 21.3562 19.4016C21.1875 19.5703 21.0422 19.6969 21.0328 19.6828C21.0187 19.6734 20.0484 17.7656 18.8719 15.45L16.7297 11.2359L17.7 10.2609C18.2391 9.72188 18.6797 9.29063 18.6891 9.29531C18.6937 9.30469 19.3547 11.4609 20.1562 14.0906ZM3.67031 14.8406C4.575 15.2953 5.32969 15.675 5.33906 15.6844C5.35781 15.7031 4.47187 16.8094 4.39687 16.8563C4.36875 16.875 3.75 16.2891 3.01875 15.5578L1.69219 14.2313L1.79062 14.1234C1.84687 14.0625 1.91719 14.0156 1.95469 14.0156C1.9875 14.0156 2.76094 14.3859 3.67031 14.8406ZM9.9 22.1859L9.77812 22.3172L8.45156 20.9906C7.72031 20.2594 7.12969 19.65 7.13437 19.6313C7.14375 19.6125 7.41094 19.3828 7.73437 19.1203L8.31562 18.6469L9.16875 20.3531L10.0219 22.0547L9.9 22.1859Z" fill="#291926"/>
<path d="M2.06249 20.9813C1.8328 21.136 0.178115 22.8094 0.089053 22.9781C0.042178 23.0766 -9.53674e-06 23.2172 -9.53674e-06 23.2969C-9.53674e-06 23.5313 0.164053 23.7985 0.37499 23.9063C0.604678 24.0235 0.796865 24.0235 1.02187 23.911C1.19062 23.8219 2.86405 22.1672 3.01874 21.9375C3.12187 21.7781 3.11718 21.3891 3.00468 21.2156C2.9578 21.1453 2.85468 21.0422 2.78437 20.9953C2.61093 20.8828 2.22187 20.8781 2.06249 20.9813Z" fill="#291926"/>
</g>
<defs>
<clipPath id="clip0_15_52">
<rect width="24" height="24" fill="white"/>
</clipPath>
</defs>
</svg>

